Video con info:

Screenshots: 
http://imgur.com/a/hRAPz

4 de Abril de 2013:
Concierto completo en VIDEO (salvo "Got Some", que no pude incluir pues se me cortó la transmisión) de Pearl Jam ayer en el Pepsi Music 2013, Costanera Sur, Buenos Aires.

SETLIST:

Release
Even Flow
Lukin
Corduroy
In Hiding
Save You
Deep
Jeremy
Wishlist
Hail Hail
Given to Fly
I Got Id
Daughter (It's Ok (Spanish: Está Bien)
Got Some (NO INLCUIDO EN EL VIDEO)
Better Man (Save it for Later)
Elderly Woman Behind the Counter in a Small Town
Rearviewmirror

Encore:

Do the Evolution
Animal
Just Breathe
Black (We Belong Together)
I Believe in Miracles (Ramones cover)
Alive
Rockin' in the Free World (Neil Young cover)
Yellow Ledbetter

***************************************************

IMPORTANTE:
Minutos donde tuve que editar por problemas con la transmisión:

32:51 (corte de origen de Vorterix durante la intro de Jeremy)
50:51 (corte de 10 segundos - editado por mí)
1:01:47 (vendría "Got Some", pero perdí la conexión)

*************************************************************
Datos del video:

Format : AVI
Format/Info : Audio Video Interleave
Format profile : OpenDML
File size : 4.19 GiB
Duration : 2h 18mn
Overall bit rate : 4 333 Kbps
Writing application : Lavf52.94.0

Video
Format : AVC
Format/Info : Advanced Video Codec
Format settings, CABAC : Yes
Format settings, ReFrames : 2 frames
Codec ID : H264
Duration : 2h 18mn
Bit rate : 4 000 Kbps
Width : 720 pixels
Height : 408 pixels
Display aspect ratio : 16:9
Frame rate mode : Variable
Frame rate : 30.000 fps
Color space : YUV
Chroma subsampling : 4:2:0
Bit depth : 8 bits
Scan type : Progressive
Bits/(Pixel*Frame) : 0.454
Stream size : 3.87 GiB (92%)


Audio
ID : 1
Format : MPEG Audio
Format version : Version 1
Format profile : Layer 3
Mode : Joint stereo
Mode extension : MS Stereo
Codec ID : 55
Codec ID/Hint : MP3
Duration : 2h 18mn
Bit rate mode : Constant
Bit rate : 320 Kbps
Channel(s) : 2 channels
Sampling rate : 48.0 KHz
Compression mode : Lossy
Delay relative to video : 36s 864ms
Stream size : 317 MiB (7%)
Alignment : Split accross interleaves
Interleave, duration : 24 ms (0.72 video frame)
Interleave, preload duration : 523 ms
Writing library : LAME3.98.4 





Agradecimientos a loquerisne por grabar y capturar todo el show de Pearl Jam en Argentina.
